<svg xmlns="http://www.w3.org/2000/svg" xmlns:xlink="http://www.w3.org/1999/xlink" width="500" zoomAndPan="magnify" viewBox="0 0 375 374.999991" height="500" preserveAspectRatio="xMidYMid meet" version="1.0"><defs><g/><clipPath id="id1"><path d="M 143.339844 198.507812 L 153.839844 198.507812 L 153.839844 208.257812 L 143.339844 208.257812 Z M 143.339844 198.507812 " clip-rule="nonzero"/></clipPath><clipPath id="id2"><path d="M 197.046875 215.007812 L 207.546875 215.007812 L 207.546875 224.757812 L 197.046875 224.757812 Z M 197.046875 215.007812 " clip-rule="nonzero"/></clipPath><clipPath id="id3"><path d="M 161.566406 163.796875 L 172.066406 163.796875 L 172.066406 173.546875 L 161.566406 173.546875 Z M 161.566406 163.796875 " clip-rule="nonzero"/></clipPath><clipPath id="id4"><path d="M 210.261719 152.75 L 220.761719 152.75 L 220.761719 162.5 L 210.261719 162.5 Z M 210.261719 152.75 " clip-rule="nonzero"/></clipPath><clipPath id="id5"><path d="M 133 161 L 147 161 L 147 189 L 133 189 Z M 133 161 " clip-rule="nonzero"/></clipPath><clipPath id="id6"><path d="M 136.945312 191.949219 L 120.570312 174.402344 L 138.117188 158.027344 L 154.492188 175.574219 Z M 136.945312 191.949219 " clip-rule="nonzero"/></clipPath><clipPath id="id7"><path d="M 136.945312 191.949219 L 120.570312 174.402344 L 138.117188 158.027344 L 154.492188 175.574219 Z M 136.945312 191.949219 " clip-rule="nonzero"/></clipPath><clipPath id="id8"><path d="M 185.640625 178.316406 L 192.390625 178.316406 L 192.390625 185.066406 L 185.640625 185.066406 Z M 185.640625 178.316406 " clip-rule="nonzero"/></clipPath><clipPath id="id9"><path d="M 208.328125 195.882812 L 215.078125 195.882812 L 215.078125 202.632812 L 208.328125 202.632812 Z M 208.328125 195.882812 " clip-rule="nonzero"/></clipPath><clipPath id="id10"><path d="M 166.695312 213.363281 L 173.445312 213.363281 L 173.445312 220.113281 L 166.695312 220.113281 Z M 166.695312 213.363281 " clip-rule="nonzero"/></clipPath><clipPath id="id11"><path d="M 234.523438 200.476562 L 245.023438 200.476562 L 245.023438 210.226562 L 234.523438 210.226562 Z M 234.523438 200.476562 " clip-rule="nonzero"/></clipPath></defs><g clip-path="url(#id1)"><path fill="#210050" d="M 148.589844 205.96875 L 151.832031 208.257812 L 150.589844 204.558594 L 153.835938 202.320312 L 149.855469 202.320312 L 148.589844 198.507812 L 147.320312 202.320312 L 143.34375 202.320312 L 146.585938 204.558594 L 145.347656 208.257812 Z M 148.589844 205.96875 " fill-opacity="1" fill-rule="nonzero"/></g><path stroke-linecap="butt" transform="matrix(2.123873, -2.123873, 2.011326, 2.011326, 179.715739, 209.059438)" fill="none" stroke-linejoin="miter" d="M -0.0000119656 -0.000432518 L 16.23378 0.000538545 " stroke="#210050" stroke-width="1" stroke-opacity="1" stroke-miterlimit="4"/><g clip-path="url(#id2)"><path fill="#210050" d="M 202.296875 222.46875 L 205.542969 224.757812 L 204.300781 221.058594 L 207.542969 218.820312 L 203.566406 218.820312 L 202.296875 215.007812 L 201.03125 218.820312 L 197.050781 218.820312 L 200.296875 221.058594 L 199.058594 224.757812 Z M 202.296875 222.46875 " fill-opacity="1" fill-rule="nonzero"/></g><g clip-path="url(#id3)"><path fill="#210050" d="M 166.816406 171.257812 L 170.0625 173.546875 L 168.820312 169.851562 L 172.066406 167.613281 L 168.085938 167.613281 L 166.816406 163.796875 L 165.550781 167.613281 L 161.570312 167.613281 L 164.816406 169.851562 L 163.578125 173.546875 Z M 166.816406 171.257812 " fill-opacity="1" fill-rule="nonzero"/></g><g clip-path="url(#id4)"><path fill="#210050" d="M 215.511719 160.210938 L 218.753906 162.5 L 217.511719 158.804688 L 220.757812 156.566406 L 216.777344 156.566406 L 215.511719 152.75 L 214.242188 156.566406 L 210.265625 156.566406 L 213.507812 158.804688 L 212.269531 162.5 Z M 215.511719 160.210938 " fill-opacity="1" fill-rule="nonzero"/></g><g clip-path="url(#id5)"><g clip-path="url(#id6)"><g clip-path="url(#id7)"><path fill="#f9ac00" d="M 133.886719 187.835938 C 133.589844 188.050781 133.75 188.523438 134.113281 188.5 C 141.082031 188.09375 146.730469 182.429688 146.972656 175.316406 C 147.21875 168.203125 141.980469 162.160156 135.054688 161.273438 C 134.691406 161.226562 134.503906 161.683594 134.78125 161.917969 C 137.976562 164.597656 140.328125 169.589844 140.136719 175.078125 C 139.949219 180.566406 137.257812 185.382812 133.886719 187.835938 Z M 133.886719 187.835938 " fill-opacity="1" fill-rule="evenodd"/></g></g></g><g clip-path="url(#id8)"><path fill="#210050" d="M 189.015625 183.480469 L 191.101562 185.0625 L 190.300781 182.507812 L 192.390625 180.957031 L 189.832031 180.957031 L 189.015625 178.316406 L 188.199219 180.957031 L 185.640625 180.957031 L 187.726562 182.507812 L 186.929688 185.0625 Z M 189.015625 183.480469 " fill-opacity="1" fill-rule="nonzero"/></g><g clip-path="url(#id9)"><path fill="#210050" d="M 211.703125 201.046875 L 213.789062 202.632812 L 212.988281 200.074219 L 215.078125 198.527344 L 212.519531 198.527344 L 211.703125 195.886719 L 210.886719 198.527344 L 208.328125 198.527344 L 210.414062 200.074219 L 209.617188 202.632812 Z M 211.703125 201.046875 " fill-opacity="1" fill-rule="nonzero"/></g><g fill="#210050" fill-opacity="1"><g transform="translate(119.682449, 243.62508)"><g><path d="M 3.640625 -1.296875 L 5.46875 -5.453125 L 6.3125 -5.453125 L 6.609375 0 L 5.765625 0 L 5.546875 -4.6875 L 5.515625 -4.6875 L 3.4375 0 L 3.328125 0 L 1.296875 -4.5 L 1.265625 -4.5 L 1.03125 0 L 0.671875 0 L 0.984375 -5.453125 L 1.75 -5.453125 Z M 3.640625 -1.296875 "/></g></g></g><g fill="#210050" fill-opacity="1"><g transform="translate(129.878323, 243.62508)"><g><path d="M 0.078125 0 L 2.53125 -5.578125 L 2.65625 -5.578125 L 5.09375 0 L 4.203125 0 L 3.578125 -1.484375 L 1.140625 -1.484375 L 0.53125 0 Z M 1.265625 -1.796875 L 3.453125 -1.796875 L 2.359375 -4.46875 Z M 1.265625 -1.796875 "/></g></g></g><g fill="#210050" fill-opacity="1"><g transform="translate(137.934621, 243.62508)"><g><path d="M 1.578125 0 L 0.734375 0 L 0.734375 -5.453125 L 1.578125 -5.453125 L 1.578125 -2.765625 L 4.125 -5.453125 L 4.671875 -5.453125 L 2.09375 -2.921875 L 5.015625 0 L 3.953125 0.109375 L 1.578125 -2.6875 Z M 1.578125 0 "/></g></g></g><g fill="#210050" fill-opacity="1"><g transform="translate(145.826334, 243.62508)"><g><path d="M 1.5 -5.453125 L 1.5 0 L 0.734375 0 L 0.734375 -5.453125 Z M 1.5 -5.453125 "/></g></g></g><g fill="#210050" fill-opacity="1"><g transform="translate(150.944834, 243.62508)"><g><path d="M 4.890625 0.09375 L 4.75 0.09375 L 1.140625 -4.421875 L 1.109375 -4.421875 L 1.109375 0 L 0.734375 0 L 0.734375 -5.453125 L 1.34375 -5.453125 L 4.484375 -1.484375 L 4.515625 -1.484375 L 4.515625 -5.453125 L 4.890625 -5.453125 Z M 4.890625 0.09375 "/></g></g></g><g fill="#210050" fill-opacity="1"><g transform="translate(159.44551, 243.62508)"><g><path d="M 4.1875 -2.34375 L 4.984375 -2.34375 L 4.984375 -0.1875 C 4.515625 0 3.945312 0.09375 3.28125 0.09375 C 2.476562 0.09375 1.785156 -0.117188 1.203125 -0.546875 C 0.921875 -0.753906 0.691406 -1.03125 0.515625 -1.375 C 0.347656 -1.726562 0.265625 -2.113281 0.265625 -2.53125 C 0.265625 -2.957031 0.328125 -3.335938 0.453125 -3.671875 C 0.585938 -4.015625 0.757812 -4.296875 0.96875 -4.515625 C 1.1875 -4.742188 1.4375 -4.941406 1.71875 -5.109375 C 2.238281 -5.398438 2.8125 -5.546875 3.4375 -5.546875 C 3.675781 -5.546875 3.9375 -5.519531 4.21875 -5.46875 C 4.5 -5.414062 4.710938 -5.359375 4.859375 -5.296875 L 4.78125 -4.75 C 4.039062 -5.0625 3.425781 -5.21875 2.9375 -5.21875 C 2.375 -5.070312 1.929688 -4.773438 1.609375 -4.328125 C 1.296875 -3.890625 1.140625 -3.347656 1.140625 -2.703125 C 1.140625 -1.898438 1.347656 -1.28125 1.765625 -0.84375 C 2.191406 -0.40625 2.75 -0.1875 3.4375 -0.1875 C 3.71875 -0.1875 3.96875 -0.210938 4.1875 -0.265625 Z M 4.1875 -2.34375 "/></g></g></g><g fill="#210050" fill-opacity="1"><g transform="translate(167.921499, 243.62508)"><g/></g></g><g fill="#210050" fill-opacity="1"><g transform="translate(172.858952, 243.62508)"><g><path d="M 3.640625 -1.296875 L 5.46875 -5.453125 L 6.3125 -5.453125 L 6.609375 0 L 5.765625 0 L 5.546875 -4.6875 L 5.515625 -4.6875 L 3.4375 0 L 3.328125 0 L 1.296875 -4.5 L 1.265625 -4.5 L 1.03125 0 L 0.671875 0 L 0.984375 -5.453125 L 1.75 -5.453125 Z M 3.640625 -1.296875 "/></g></g></g><g fill="#210050" fill-opacity="1"><g transform="translate(183.054825, 243.62508)"><g><path d="M 3.21875 -5.546875 C 3.9375 -5.546875 4.523438 -5.3125 4.984375 -4.84375 C 5.453125 -4.375 5.6875 -3.722656 5.6875 -2.890625 C 5.6875 -2.347656 5.59375 -1.875 5.40625 -1.46875 C 5.21875 -1.070312 4.972656 -0.765625 4.671875 -0.546875 C 4.085938 -0.117188 3.441406 0.09375 2.734375 0.09375 C 2.023438 0.09375 1.4375 -0.140625 0.96875 -0.609375 C 0.507812 -1.085938 0.28125 -1.742188 0.28125 -2.578125 C 0.28125 -3.015625 0.34375 -3.40625 0.46875 -3.75 C 0.59375 -4.101562 0.753906 -4.390625 0.953125 -4.609375 C 1.148438 -4.828125 1.378906 -5.007812 1.640625 -5.15625 C 2.128906 -5.414062 2.65625 -5.546875 3.21875 -5.546875 Z M 1.5625 -0.9375 C 1.707031 -0.695312 1.898438 -0.507812 2.140625 -0.375 C 2.378906 -0.238281 2.65625 -0.171875 2.96875 -0.171875 C 3.289062 -0.171875 3.570312 -0.25 3.8125 -0.40625 C 4.0625 -0.570312 4.253906 -0.78125 4.390625 -1.03125 C 4.671875 -1.550781 4.8125 -2.109375 4.8125 -2.703125 C 4.8125 -3.429688 4.664062 -4.019531 4.375 -4.46875 C 4.050781 -4.96875 3.519531 -5.21875 2.78125 -5.21875 C 2.238281 -5.03125 1.832031 -4.707031 1.5625 -4.25 C 1.289062 -3.789062 1.15625 -3.273438 1.15625 -2.703125 C 1.15625 -1.992188 1.289062 -1.40625 1.5625 -0.9375 Z M 1.5625 -0.9375 "/></g></g></g><g fill="#210050" fill-opacity="1"><g transform="translate(191.901117, 243.62508)"><g><path d="M 4.890625 0.09375 L 4.75 0.09375 L 1.140625 -4.421875 L 1.109375 -4.421875 L 1.109375 0 L 0.734375 0 L 0.734375 -5.453125 L 1.34375 -5.453125 L 4.484375 -1.484375 L 4.515625 -1.484375 L 4.515625 -5.453125 L 4.890625 -5.453125 Z M 4.890625 0.09375 "/></g></g></g><g fill="#210050" fill-opacity="1"><g transform="translate(200.40179, 243.62508)"><g><path d="M 0.734375 0 L 0.734375 -5.453125 L 4.046875 -5.453125 L 3.953125 -4.90625 L 2.421875 -5.15625 C 2.160156 -5.15625 1.867188 -5.109375 1.546875 -5.015625 L 1.546875 -3.015625 L 3.375 -3.015625 L 3.375 -2.703125 L 1.546875 -2.703125 L 1.546875 -0.296875 L 4.09375 -0.546875 L 4.015625 0 Z M 0.734375 0 "/></g></g></g><g fill="#210050" fill-opacity="1"><g transform="translate(207.906738, 243.62508)"><g><path d="M 2.828125 0 L 2.03125 0 L 2.03125 -2.03125 L 0.171875 -5.453125 L 1.0625 -5.453125 L 2.578125 -2.328125 L 4.015625 -5.453125 L 4.421875 -5.453125 L 2.828125 -2.0625 Z M 2.828125 0 "/></g></g></g><g fill="#210050" fill-opacity="1"><g transform="translate(215.370541, 243.62508)"><g/></g></g><g fill="#210050" fill-opacity="1"><g transform="translate(220.307994, 243.62508)"><g><path d="M 6.546875 -5.453125 L 6.96875 -5.453125 L 4.921875 0.125 L 4.796875 0.125 L 3.53125 -3.25 L 2.296875 0.125 L 2.171875 0.125 L 0.078125 -5.453125 L 0.984375 -5.453125 L 2.421875 -0.984375 L 3.34375 -3.734375 L 2.703125 -5.453125 L 3.609375 -5.453125 L 5.0625 -0.984375 Z M 6.546875 -5.453125 "/></g></g></g><g fill="#210050" fill-opacity="1"><g transform="translate(230.232311, 243.62508)"><g><path d="M 1.546875 -2.703125 L 1.546875 0 L 0.734375 0 L 0.734375 -5.453125 L 1.546875 -5.453125 L 1.546875 -3.015625 L 4.03125 -3.015625 L 4.03125 -5.453125 L 4.828125 -5.453125 L 4.828125 0 L 4.03125 0 L 4.03125 -2.703125 Z M 1.546875 -2.703125 "/></g></g></g><g fill="#210050" fill-opacity="1"><g transform="translate(238.683605, 243.62508)"><g><path d="M 1.5 -5.453125 L 1.5 0 L 0.734375 0 L 0.734375 -5.453125 Z M 1.5 -5.453125 "/></g></g></g><g fill="#210050" fill-opacity="1"><g transform="translate(243.802103, 243.62508)"><g><path d="M 0.734375 0 L 0.734375 -5.453125 L 1.546875 -5.453125 L 1.546875 -0.4375 C 1.878906 -0.34375 2.148438 -0.296875 2.359375 -0.296875 L 3.84375 -0.546875 L 3.75 0 Z M 0.734375 0 "/></g></g></g><g fill="#210050" fill-opacity="1"><g transform="translate(250.689863, 243.62508)"><g><path d="M 0.734375 0 L 0.734375 -5.453125 L 4.046875 -5.453125 L 3.953125 -4.90625 L 2.421875 -5.15625 C 2.160156 -5.15625 1.867188 -5.109375 1.546875 -5.015625 L 1.546875 -3.015625 L 3.375 -3.015625 L 3.375 -2.703125 L 1.546875 -2.703125 L 1.546875 -0.296875 L 4.09375 -0.546875 L 4.015625 0 Z M 0.734375 0 "/></g></g></g><g fill="#210050" fill-opacity="1"><g transform="translate(153.348792, 253.225666)"><g><path d="M 2.828125 0 L 2.03125 0 L 2.03125 -2.03125 L 0.171875 -5.453125 L 1.0625 -5.453125 L 2.578125 -2.328125 L 4.015625 -5.453125 L 4.421875 -5.453125 L 2.828125 -2.0625 Z M 2.828125 0 "/></g></g></g><g fill="#210050" fill-opacity="1"><g transform="translate(160.812598, 253.225666)"><g><path d="M 3.21875 -5.546875 C 3.9375 -5.546875 4.523438 -5.3125 4.984375 -4.84375 C 5.453125 -4.375 5.6875 -3.722656 5.6875 -2.890625 C 5.6875 -2.347656 5.59375 -1.875 5.40625 -1.46875 C 5.21875 -1.070312 4.972656 -0.765625 4.671875 -0.546875 C 4.085938 -0.117188 3.441406 0.09375 2.734375 0.09375 C 2.023438 0.09375 1.4375 -0.140625 0.96875 -0.609375 C 0.507812 -1.085938 0.28125 -1.742188 0.28125 -2.578125 C 0.28125 -3.015625 0.34375 -3.40625 0.46875 -3.75 C 0.59375 -4.101562 0.753906 -4.390625 0.953125 -4.609375 C 1.148438 -4.828125 1.378906 -5.007812 1.640625 -5.15625 C 2.128906 -5.414062 2.65625 -5.546875 3.21875 -5.546875 Z M 1.5625 -0.9375 C 1.707031 -0.695312 1.898438 -0.507812 2.140625 -0.375 C 2.378906 -0.238281 2.65625 -0.171875 2.96875 -0.171875 C 3.289062 -0.171875 3.570312 -0.25 3.8125 -0.40625 C 4.0625 -0.570312 4.253906 -0.78125 4.390625 -1.03125 C 4.671875 -1.550781 4.8125 -2.109375 4.8125 -2.703125 C 4.8125 -3.429688 4.664062 -4.019531 4.375 -4.46875 C 4.050781 -4.96875 3.519531 -5.21875 2.78125 -5.21875 C 2.238281 -5.03125 1.832031 -4.707031 1.5625 -4.25 C 1.289062 -3.789062 1.15625 -3.273438 1.15625 -2.703125 C 1.15625 -1.992188 1.289062 -1.40625 1.5625 -0.9375 Z M 1.5625 -0.9375 "/></g></g></g><g fill="#210050" fill-opacity="1"><g transform="translate(169.658892, 253.225666)"><g><path d="M 4.796875 -5.453125 L 4.796875 -2.109375 C 4.796875 -1.597656 4.738281 -1.210938 4.625 -0.953125 C 4.570312 -0.835938 4.492188 -0.707031 4.390625 -0.5625 C 4.285156 -0.414062 4.160156 -0.300781 4.015625 -0.21875 C 3.648438 -0.0078125 3.195312 0.09375 2.65625 0.09375 C 1.300781 0.09375 0.625 -0.601562 0.625 -2 L 0.625 -5.453125 L 1.453125 -5.453125 L 1.453125 -1.9375 C 1.453125 -1.78125 1.453125 -1.648438 1.453125 -1.546875 C 1.460938 -1.453125 1.492188 -1.3125 1.546875 -1.125 C 1.597656 -0.945312 1.671875 -0.800781 1.765625 -0.6875 C 1.859375 -0.582031 2 -0.484375 2.1875 -0.390625 C 2.382812 -0.304688 2.617188 -0.265625 2.890625 -0.265625 C 3.921875 -0.265625 4.4375 -0.8125 4.4375 -1.90625 L 4.4375 -5.453125 Z M 4.796875 -5.453125 "/></g></g></g><g fill="#210050" fill-opacity="1"><g transform="translate(177.945603, 253.225666)"><g/></g></g><g fill="#210050" fill-opacity="1"><g transform="translate(182.883059, 253.225666)"><g><path d="M 1.328125 -4.5 C 1.328125 -4.257812 1.421875 -4.035156 1.609375 -3.828125 C 1.804688 -3.628906 2.039062 -3.453125 2.3125 -3.296875 C 2.582031 -3.140625 2.851562 -2.976562 3.125 -2.8125 C 3.394531 -2.644531 3.625 -2.441406 3.8125 -2.203125 C 4 -1.972656 4.09375 -1.71875 4.09375 -1.4375 C 4.09375 -0.976562 3.925781 -0.609375 3.59375 -0.328125 C 3.257812 -0.046875 2.8125 0.09375 2.25 0.09375 C 1.6875 0.09375 1.125 -0.0078125 0.5625 -0.21875 L 0.5625 -0.609375 C 1.125 -0.328125 1.597656 -0.1875 1.984375 -0.1875 C 2.378906 -0.1875 2.6875 -0.28125 2.90625 -0.46875 C 3.132812 -0.664062 3.25 -0.9375 3.25 -1.28125 C 3.25 -1.507812 3.15625 -1.71875 2.96875 -1.90625 C 2.789062 -2.09375 2.570312 -2.253906 2.3125 -2.390625 C 2.050781 -2.535156 1.789062 -2.679688 1.53125 -2.828125 C 1.28125 -2.984375 1.0625 -3.171875 0.875 -3.390625 C 0.695312 -3.617188 0.609375 -3.894531 0.609375 -4.21875 C 0.609375 -4.539062 0.75 -4.84375 1.03125 -5.125 C 1.320312 -5.40625 1.753906 -5.546875 2.328125 -5.546875 C 2.703125 -5.546875 3.175781 -5.460938 3.75 -5.296875 L 3.671875 -4.734375 C 2.921875 -5.054688 2.285156 -5.21875 1.765625 -5.21875 C 1.472656 -5.070312 1.328125 -4.832031 1.328125 -4.5 Z M 1.328125 -4.5 "/></g></g></g><g fill="#210050" fill-opacity="1"><g transform="translate(190.33863, 253.225666)"><g><path d="M 0.734375 0 L 0.734375 -5.453125 L 1.546875 -5.453125 L 1.546875 -0.4375 C 1.878906 -0.34375 2.148438 -0.296875 2.359375 -0.296875 L 3.84375 -0.546875 L 3.75 0 Z M 0.734375 0 "/></g></g></g><g fill="#210050" fill-opacity="1"><g transform="translate(197.226393, 253.225666)"><g><path d="M 0.734375 0 L 0.734375 -5.453125 L 4.046875 -5.453125 L 3.953125 -4.90625 L 2.421875 -5.15625 C 2.160156 -5.15625 1.867188 -5.109375 1.546875 -5.015625 L 1.546875 -3.015625 L 3.375 -3.015625 L 3.375 -2.703125 L 1.546875 -2.703125 L 1.546875 -0.296875 L 4.09375 -0.546875 L 4.015625 0 Z M 0.734375 0 "/></g></g></g><g fill="#210050" fill-opacity="1"><g transform="translate(204.731343, 253.225666)"><g><path d="M 0.734375 0 L 0.734375 -5.453125 L 4.046875 -5.453125 L 3.953125 -4.90625 L 2.421875 -5.15625 C 2.160156 -5.15625 1.867188 -5.109375 1.546875 -5.015625 L 1.546875 -3.015625 L 3.375 -3.015625 L 3.375 -2.703125 L 1.546875 -2.703125 L 1.546875 -0.296875 L 4.09375 -0.546875 L 4.015625 0 Z M 0.734375 0 "/></g></g></g><g fill="#210050" fill-opacity="1"><g transform="translate(212.236291, 253.225666)"><g><path d="M 4.40625 -4.03125 C 4.40625 -3.507812 4.210938 -3.109375 3.828125 -2.828125 C 3.441406 -2.554688 2.914062 -2.421875 2.25 -2.421875 L 1.546875 -2.421875 L 1.546875 0 L 0.734375 0 L 0.734375 -5.453125 L 2.515625 -5.453125 C 3.066406 -5.453125 3.519531 -5.320312 3.875 -5.0625 C 4.226562 -4.8125 4.40625 -4.46875 4.40625 -4.03125 Z M 1.546875 -2.671875 L 2.265625 -2.671875 C 2.523438 -2.671875 2.75 -2.71875 2.9375 -2.8125 C 3.125 -2.914062 3.253906 -3.039062 3.328125 -3.1875 C 3.484375 -3.46875 3.5625 -3.738281 3.5625 -4 C 3.5625 -4.125 3.523438 -4.273438 3.453125 -4.453125 C 3.328125 -4.804688 3.054688 -5.039062 2.640625 -5.15625 C 2.242188 -5.15625 1.878906 -5.109375 1.546875 -5.015625 Z M 1.546875 -2.671875 "/></g></g></g><g fill="#210050" fill-opacity="1"><g transform="translate(219.59927, 253.225666)"><g/></g></g><g fill="#210050" fill-opacity="1"><g transform="translate(118.426826, 145.211732)"><g><path d="M -2.417969 -18.691406 L 1.46875 -0.3125 L 2.941406 -0.621094 L 1.269531 -8.527344 L 8.253906 -10.003906 C 12.941406 -10.996094 13.269531 -14.617188 12.878906 -16.457031 C 12.492188 -18.292969 10.722656 -21.472656 6.035156 -20.480469 Z M 0.996094 -9.8125 L -0.605469 -17.386719 C -0.816406 -18.378906 -0.558594 -18.703125 0.105469 -18.839844 C 0.875 -19.003906 3.039062 -19.480469 4.492188 -19.789062 C 8.167969 -20.566406 10.5 -19.082031 11.132812 -16.085938 C 11.765625 -13.089844 10.234375 -10.808594 6.558594 -10.027344 L 2.109375 -9.089844 C 1.558594 -8.972656 1.113281 -9.261719 0.996094 -9.8125 Z M 0.996094 -9.8125 "/></g></g></g><g fill="#210050" fill-opacity="1"><g transform="translate(137.027358, 141.347163)"><g><path d="M 2.007812 -0.296875 L 2.480469 -3.914062 C 2.5625 -4.535156 2.890625 -5.398438 3.253906 -5.757812 C 4.21875 -6.695312 5.335938 -7.242188 6.523438 -7.414062 C 8.625 -7.722656 11.597656 -6.890625 12.808594 -4.976562 L 14.609375 -2.148438 L 16.246094 -2.386719 L 5.222656 -19.757812 L 3.585938 -19.515625 L 4.105469 -18.699219 L 0.371094 -0.0546875 Z M 2.996094 -7.636719 L 4.289062 -17.207031 C 4.335938 -17.519531 4.425781 -17.683594 4.554688 -17.703125 C 4.667969 -17.71875 4.816406 -17.609375 4.96875 -17.363281 L 11.34375 -7.328125 C 11.640625 -6.855469 11.542969 -6.746094 11.0625 -7.039062 C 9.480469 -7.984375 7.570312 -8.558594 5.824219 -8.300781 C 5.007812 -8.179688 4.234375 -7.875 3.550781 -7.359375 C 3.378906 -7.238281 3.257812 -7.164062 3.164062 -7.148438 C 2.996094 -7.125 2.953125 -7.289062 2.996094 -7.636719 Z M 2.996094 -7.636719 "/></g></g></g><g fill="#210050" fill-opacity="1"><g transform="translate(155.290384, 138.713835)"><g><path d="M 0.699219 -4.035156 C 0.914062 -1.472656 4.207031 0.0273438 8.792969 -0.355469 C 12.539062 -0.667969 16.15625 -2.742188 15.835938 -6.558594 C 15.191406 -14.3125 1.890625 -9.207031 1.460938 -14.355469 C 1.214844 -17.332031 3.328125 -19.128906 6.867188 -19.425781 C 9.972656 -19.683594 12.929688 -18.382812 13.6875 -15.828125 C 14.214844 -16.058594 14.382812 -16.542969 14.335938 -17.125 C 14.136719 -19.503906 10.128906 -20.074219 7.152344 -19.824219 C 3.652344 -19.535156 -0.164062 -17.800781 0.140625 -14.152344 C 0.761719 -6.71875 13.949219 -12.925781 14.53125 -5.925781 C 14.789062 -2.835938 12 -1 8.761719 -0.730469 C 5.46875 -0.457031 2.300781 -2.265625 2.132812 -4.289062 C 2.082031 -4.867188 2.25 -5.351562 2.777344 -5.585938 C 2.496094 -5.789062 2.207031 -5.859375 1.945312 -5.835938 C 1.214844 -5.777344 0.617188 -5.027344 0.699219 -4.035156 Z M 0.699219 -4.035156 "/></g></g></g><g fill="#210050" fill-opacity="1"><g transform="translate(174.388065, 137.185962)"><g><path d="M 0.957031 -3.984375 C 1.007812 -1.410156 4.195312 0.296875 8.796875 0.207031 C 12.554688 0.136719 16.296875 -1.703125 16.222656 -5.535156 C 16.074219 -13.3125 2.476562 -9.066406 2.378906 -14.234375 C 2.320312 -17.21875 4.542969 -18.878906 8.09375 -18.945312 C 11.210938 -19.003906 14.078125 -17.519531 14.671875 -14.917969 C 15.214844 -15.117188 15.410156 -15.589844 15.398438 -16.171875 C 15.355469 -18.558594 11.394531 -19.382812 8.40625 -19.328125 C 4.894531 -19.261719 0.976562 -17.777344 1.046875 -14.113281 C 1.1875 -6.65625 14.746094 -12.007812 14.882812 -4.980469 C 14.941406 -1.882812 12.039062 -0.230469 8.789062 -0.167969 C 5.484375 -0.105469 2.441406 -2.113281 2.402344 -4.140625 C 2.390625 -4.726562 2.585938 -5.199219 3.128906 -5.394531 C 2.863281 -5.617188 2.578125 -5.707031 2.316406 -5.699219 C 1.582031 -5.6875 0.9375 -4.980469 0.957031 -3.984375 Z M 0.957031 -3.984375 "/></g></g></g><g fill="#210050" fill-opacity="1"><g transform="translate(193.664422, 136.999713)"><g><path d="M 1.503906 0.0351562 L 3.003906 0.0742188 L 3.457031 -18.710938 L 1.957031 -18.746094 Z M 1.503906 0.0351562 "/></g></g></g><g fill="#210050" fill-opacity="1"><g transform="translate(200.277289, 137.083538)"><g><path d="M 1.230469 -18.746094 L 8.359375 0.546875 L 9.375 0.613281 L 17.238281 -17.699219 L 15.589844 -17.804688 L 9.8125 -1.746094 C 9.699219 -1.453125 9.574219 -1.3125 9.445312 -1.320312 C 9.332031 -1.328125 9.207031 -1.46875 9.113281 -1.738281 L 2.878906 -18.640625 Z M 1.230469 -18.746094 "/></g></g></g><g fill="#210050" fill-opacity="1"><g transform="translate(218.369826, 138.432934)"><g><path d="M 1.496094 0.160156 L 2.988281 0.320312 L 4.992188 -18.359375 L 3.496094 -18.519531 Z M 1.496094 0.160156 "/></g></g></g><g fill="#210050" fill-opacity="1"><g transform="translate(224.947938, 139.052768)"><g><path d="M 3.910156 -18.410156 L 3.660156 -16.757812 C 5.285156 -17.195312 8.574219 -17.328125 9.277344 -17.222656 C 9.949219 -17.121094 10.222656 -16.816406 10.074219 -15.8125 L 7.523438 1.132812 L 9.011719 1.355469 L 11.558594 -15.589844 C 11.710938 -16.589844 12.066406 -16.804688 12.734375 -16.703125 C 13.441406 -16.597656 16.542969 -15.503906 17.964844 -14.605469 L 18.214844 -16.257812 Z M 3.910156 -18.410156 "/></g></g></g><g fill="#210050" fill-opacity="1"><g transform="translate(243.434263, 141.907898)"><g><path d="M 8.363281 -7.953125 C 8.582031 -7.445312 8.617188 -6.707031 8.5 -6.15625 L 6.871094 1.46875 L 8.339844 1.78125 L 9.96875 -5.84375 C 10.085938 -6.394531 10.421875 -7.054688 10.828125 -7.429688 L 19.082031 -15.136719 L 17.5 -15.472656 L 10.636719 -7.796875 C 10.433594 -7.570312 10.246094 -7.496094 10.082031 -7.53125 C 9.933594 -7.5625 9.808594 -7.703125 9.710938 -7.953125 L 5.539062 -18.027344 L 3.980469 -18.363281 Z M 8.363281 -7.953125 "/></g></g></g><path stroke-linecap="butt" transform="matrix(2.048012, -2.162515, 2.178203, 2.06287, 144.427963, 223.79975)" fill="none" stroke-linejoin="miter" d="M 0.000146762 0.000653711 L 14.101722 0.0000597311 " stroke="#210050" stroke-width="1" stroke-opacity="1" stroke-miterlimit="4"/><path stroke-linecap="butt" transform="matrix(-1.303719, -2.758808, 2.571743, -1.215319, 180.481781, 210.364777)" fill="none" stroke-linejoin="miter" d="M 0.000626772 -0.000192384 L 6.390841 -0.00057641 " stroke="#210050" stroke-width="1" stroke-opacity="1" stroke-miterlimit="4"/><path stroke-linecap="butt" transform="matrix(-1.303719, -2.758808, 2.571743, -1.215319, 221.229115, 192.025065)" fill="none" stroke-linejoin="miter" d="M 0.000292645 0.000674835 L 6.390507 0.00029081 " stroke="#210050" stroke-width="1" stroke-opacity="1" stroke-miterlimit="4"/><path stroke-linecap="butt" transform="matrix(1.918275, -2.31221, 2.189146, 1.816178, 220.541649, 190.827849)" fill="none" stroke-linejoin="miter" d="M 0.000209749 0.000418965 L 12.983508 0.000741881 " stroke="#210050" stroke-width="1" stroke-opacity="1" stroke-miterlimit="4"/><path stroke-linecap="round" transform="matrix(1.918275, -2.31221, 2.189146, 1.816178, 246.407156, 159.65063)" fill="none" stroke-linejoin="round" d="M -2.499956 -1.499866 L -0.500221 0.000742249 L -2.500351 1.500009 " stroke="#210050" stroke-width="1" stroke-opacity="1" stroke-miterlimit="4"/><g clip-path="url(#id10)"><path fill="#210050" d="M 170.070312 218.527344 L 172.15625 220.109375 L 171.359375 217.550781 L 173.445312 216.003906 L 170.886719 216.003906 L 170.070312 213.363281 L 169.253906 216.003906 L 166.695312 216.003906 L 168.78125 217.550781 L 167.988281 220.109375 Z M 170.070312 218.527344 " fill-opacity="1" fill-rule="nonzero"/></g><g clip-path="url(#id11)"><path fill="#210050" d="M 239.773438 207.9375 L 243.015625 210.226562 L 241.777344 206.527344 L 245.019531 204.289062 L 241.042969 204.289062 L 239.773438 200.476562 L 238.503906 204.289062 L 234.527344 204.289062 L 237.769531 206.527344 L 236.535156 210.226562 Z M 239.773438 207.9375 " fill-opacity="1" fill-rule="nonzero"/></g></svg>